<svg width="430" height="118" viewBox="0 0 430 118" fill="none" xmlns="http://www.w3.org/2000/svg">
<rect width="430" height="69" fill="#8D2900"/>
<rect x="107" y="57" width="220" height="61" fill="#3C2211"/>
<path d="M165.949 87.4814C165.949 88.8372 165.79 90.25 165.471 91.7197C165.152 93.1895 164.702 94.625 164.121 96.0264C163.551 97.4163 162.862 98.7323 162.053 99.9741C161.244 101.216 160.344 102.293 159.353 103.204L157.182 102.025C157.513 101.432 157.814 100.766 158.088 100.025C158.361 99.2848 158.612 98.5044 158.84 97.6841C159.068 96.8638 159.267 96.0207 159.438 95.1548C159.609 94.2889 159.751 93.4287 159.865 92.5742C159.991 91.7083 160.082 90.8709 160.139 90.062C160.196 89.2531 160.224 88.4954 160.224 87.7891C160.224 87.3903 160.213 86.9574 160.19 86.4902C160.167 86.0231 160.116 85.556 160.036 85.0889C159.968 84.6217 159.86 84.1774 159.711 83.7559C159.563 83.3229 159.358 82.9412 159.096 82.6108C158.846 82.269 158.527 82.0013 158.139 81.8076C157.763 81.6025 157.307 81.5 156.772 81.5C156.248 81.5 155.798 81.6424 155.422 81.9272C155.057 82.2007 154.744 82.5596 154.482 83.0039C154.22 83.4482 154.009 83.9495 153.85 84.5078C153.701 85.0661 153.588 85.63 153.508 86.1997C153.428 86.758 153.371 87.2935 153.337 87.8062C153.314 88.3188 153.303 88.7518 153.303 89.105V99H147.543V89.8057C147.543 89.4069 147.549 88.9284 147.561 88.3701C147.572 87.8005 147.555 87.208 147.509 86.5928C147.475 85.9775 147.401 85.368 147.287 84.7642C147.185 84.1489 147.014 83.6021 146.774 83.1235C146.547 82.645 146.233 82.2576 145.834 81.9614C145.436 81.6538 144.934 81.5 144.331 81.5C143.818 81.5 143.385 81.6424 143.032 81.9272C142.69 82.2121 142.399 82.5824 142.16 83.0381C141.932 83.4824 141.75 83.9894 141.613 84.5591C141.488 85.1174 141.391 85.6813 141.323 86.251C141.266 86.8092 141.232 87.3447 141.22 87.8574C141.209 88.3587 141.203 88.7746 141.203 89.105V99H135.41V79.2612H137.631L139.75 83.8584C140.229 82.2633 140.981 81.0215 142.006 80.1328C143.043 79.2327 144.416 78.7827 146.125 78.7827C147.663 78.7827 148.939 79.1017 149.953 79.7397C150.967 80.3778 151.765 81.4146 152.346 82.8501C152.676 82.2235 153.041 81.6595 153.439 81.1582C153.85 80.6569 154.3 80.2297 154.79 79.8765C155.291 79.5233 155.843 79.2555 156.447 79.0732C157.051 78.8796 157.718 78.7827 158.447 78.7827C159.791 78.7827 160.936 79.0049 161.882 79.4492C162.839 79.8822 163.619 80.486 164.223 81.2607C164.827 82.0355 165.266 82.9583 165.539 84.0293C165.812 85.0889 165.949 86.2396 165.949 87.4814ZM189.67 99H183.894V96.6416C183.21 97.5758 182.384 98.2708 181.416 98.7266C180.458 99.1709 179.405 99.3931 178.254 99.3931C176.75 99.3931 175.406 99.1253 174.221 98.5898C173.036 98.0544 172.033 97.3252 171.213 96.4023C170.393 95.4681 169.766 94.3743 169.333 93.1211C168.9 91.8678 168.684 90.5234 168.684 89.0879C168.684 87.6523 168.9 86.3079 169.333 85.0547C169.766 83.8014 170.393 82.7134 171.213 81.7905C172.033 80.8563 173.036 80.1214 174.221 79.5859C175.406 79.0505 176.75 78.7827 178.254 78.7827C179.017 78.7827 179.741 78.8966 180.424 79.1245C181.119 79.3524 181.752 79.6771 182.321 80.0986C182.902 80.5088 183.409 81.0101 183.842 81.6025C184.287 82.1836 184.634 82.833 184.885 83.5508L187.448 79.2612H189.67V99ZM183.859 89.0879C183.859 88.5752 183.831 88.034 183.774 87.4644C183.728 86.8947 183.643 86.3307 183.518 85.7725C183.392 85.2142 183.216 84.6844 182.988 84.1831C182.771 83.6704 182.486 83.2204 182.133 82.833C181.792 82.4342 181.376 82.1209 180.886 81.8931C180.396 81.6652 179.826 81.5513 179.177 81.5513C178.527 81.5513 177.963 81.6709 177.485 81.9102C177.006 82.138 176.596 82.4513 176.254 82.8501C175.913 83.2375 175.628 83.6875 175.4 84.2002C175.183 84.7129 175.013 85.2484 174.887 85.8066C174.762 86.3649 174.671 86.9289 174.614 87.4985C174.568 88.0568 174.545 88.5866 174.545 89.0879C174.545 89.5892 174.568 90.1247 174.614 90.6943C174.671 91.264 174.762 91.828 174.887 92.3862C175.013 92.9445 175.183 93.48 175.4 93.9927C175.628 94.5054 175.913 94.9611 176.254 95.3599C176.596 95.7472 177.006 96.0605 177.485 96.2998C177.963 96.5277 178.527 96.6416 179.177 96.6416C179.769 96.6416 180.293 96.522 180.749 96.2827C181.216 96.0321 181.621 95.7017 181.962 95.2915C182.316 94.8813 182.612 94.4142 182.851 93.8901C183.09 93.366 183.284 92.8249 183.432 92.2666C183.58 91.7083 183.688 91.1558 183.757 90.6089C183.825 90.0506 183.859 89.5436 183.859 89.0879ZM211.289 81.0044L208.042 86.3877C207.905 85.932 207.728 85.4193 207.512 84.8496C207.295 84.2799 207.028 83.7502 206.708 83.2603C206.389 82.759 206.008 82.3431 205.563 82.0127C205.119 81.6709 204.606 81.5 204.025 81.5C203.49 81.5 203.023 81.6367 202.624 81.9102C202.237 82.1836 201.906 82.5425 201.633 82.9868C201.359 83.4198 201.132 83.9154 200.949 84.4736C200.778 85.0205 200.642 85.5788 200.539 86.1484C200.448 86.7067 200.385 87.2479 200.351 87.772C200.317 88.2847 200.3 88.729 200.3 89.105V99H194.506V79.2612H196.728L199.069 83.8584C199.388 83.1178 199.753 82.4399 200.163 81.8247C200.573 81.1981 201.046 80.6626 201.582 80.2183C202.117 79.7625 202.721 79.4093 203.393 79.1587C204.077 78.908 204.846 78.7827 205.7 78.7827C206.145 78.7827 206.64 78.8226 207.187 78.9023C207.734 78.9707 208.269 79.096 208.793 79.2783C209.318 79.4492 209.802 79.6771 210.246 79.9619C210.69 80.2467 211.038 80.5942 211.289 81.0044ZM230.498 81.0044L227.25 86.3877C227.114 85.932 226.937 85.4193 226.721 84.8496C226.504 84.2799 226.236 83.7502 225.917 83.2603C225.598 82.759 225.217 82.3431 224.772 82.0127C224.328 81.6709 223.815 81.5 223.234 81.5C222.699 81.5 222.232 81.6367 221.833 81.9102C221.446 82.1836 221.115 82.5425 220.842 82.9868C220.568 83.4198 220.34 83.9154 220.158 84.4736C219.987 85.0205 219.851 85.5788 219.748 86.1484C219.657 86.7067 219.594 87.2479 219.56 87.772C219.526 88.2847 219.509 88.729 219.509 89.105V99H213.715V79.2612H215.937L218.278 83.8584C218.597 83.1178 218.962 82.4399 219.372 81.8247C219.782 81.1981 220.255 80.6626 220.791 80.2183C221.326 79.7625 221.93 79.4093 222.602 79.1587C223.286 78.908 224.055 78.7827 224.909 78.7827C225.354 78.7827 225.849 78.8226 226.396 78.9023C226.943 78.9707 227.478 79.096 228.002 79.2783C228.527 79.4492 229.011 79.6771 229.455 79.9619C229.899 80.2467 230.247 80.5942 230.498 81.0044ZM253.261 89.0879C253.261 90.1133 253.125 91.076 252.851 91.9761C252.578 92.8761 252.196 93.7078 251.706 94.4712C251.228 95.2345 250.646 95.9238 249.963 96.5391C249.279 97.1429 248.527 97.6556 247.707 98.0771C246.898 98.4987 246.027 98.8234 245.092 99.0513C244.169 99.2791 243.218 99.3931 242.238 99.3931C241.258 99.3931 240.307 99.2791 239.384 99.0513C238.461 98.8234 237.59 98.4987 236.77 98.0771C235.961 97.6556 235.214 97.1429 234.531 96.5391C233.847 95.9238 233.26 95.2345 232.771 94.4712C232.292 93.7078 231.916 92.8761 231.643 91.9761C231.369 91.0646 231.232 90.1019 231.232 89.0879C231.232 88.0739 231.369 87.1169 231.643 86.2168C231.916 85.3053 232.292 84.4679 232.771 83.7046C233.26 82.9412 233.847 82.2576 234.531 81.6538C235.214 81.0386 235.961 80.5202 236.77 80.0986C237.59 79.6771 238.461 79.3524 239.384 79.1245C240.307 78.8966 241.258 78.7827 242.238 78.7827C243.218 78.7827 244.169 78.8966 245.092 79.1245C246.027 79.3524 246.898 79.6771 247.707 80.0986C248.527 80.5202 249.279 81.0386 249.963 81.6538C250.646 82.2576 251.228 82.9412 251.706 83.7046C252.196 84.4679 252.578 85.3053 252.851 86.2168C253.125 87.1169 253.261 88.0739 253.261 89.0879ZM247.382 89.0879C247.382 88.541 247.348 87.9657 247.28 87.3618C247.223 86.7466 247.12 86.1484 246.972 85.5674C246.824 84.9749 246.619 84.411 246.357 83.8755C246.106 83.3286 245.793 82.8558 245.417 82.457C245.041 82.0469 244.591 81.7222 244.067 81.4829C243.543 81.2323 242.933 81.1069 242.238 81.1069C241.577 81.1069 240.991 81.2323 240.478 81.4829C239.965 81.7336 239.515 82.0697 239.128 82.4912C238.752 82.9014 238.433 83.3799 238.171 83.9268C237.92 84.4736 237.715 85.0433 237.556 85.6357C237.396 86.2168 237.282 86.8092 237.214 87.4131C237.146 88.0055 237.111 88.5638 237.111 89.0879C237.111 89.612 237.146 90.1759 237.214 90.7798C237.282 91.3722 237.396 91.9647 237.556 92.5571C237.715 93.1496 237.92 93.7192 238.171 94.2661C238.433 94.8016 238.752 95.2801 239.128 95.7017C239.515 96.1118 239.965 96.4422 240.478 96.6929C240.991 96.9435 241.577 97.0688 242.238 97.0688C242.922 97.0688 243.526 96.9492 244.05 96.71C244.574 96.4593 245.024 96.1289 245.4 95.7188C245.787 95.3086 246.106 94.8358 246.357 94.3003C246.608 93.7648 246.807 93.2008 246.955 92.6084C247.115 92.016 247.223 91.4178 247.28 90.814C247.348 90.2101 247.382 89.6348 247.382 89.0879ZM287.458 87.4814C287.458 88.8372 287.299 90.25 286.979 91.7197C286.66 93.1895 286.21 94.625 285.629 96.0264C285.06 97.4163 284.37 98.7323 283.562 99.9741C282.753 101.216 281.853 102.293 280.861 103.204L278.691 102.025C279.021 101.432 279.323 100.766 279.597 100.025C279.87 99.2848 280.121 98.5044 280.349 97.6841C280.576 96.8638 280.776 96.0207 280.947 95.1548C281.118 94.2889 281.26 93.4287 281.374 92.5742C281.499 91.7083 281.59 90.8709 281.647 90.062C281.704 89.2531 281.733 88.4954 281.733 87.7891C281.733 87.3903 281.722 86.9574 281.699 86.4902C281.676 86.0231 281.625 85.556 281.545 85.0889C281.477 84.6217 281.368 84.1774 281.22 83.7559C281.072 83.3229 280.867 82.9412 280.605 82.6108C280.354 82.269 280.035 82.0013 279.648 81.8076C279.272 81.6025 278.816 81.5 278.281 81.5C277.757 81.5 277.307 81.6424 276.931 81.9272C276.566 82.2007 276.253 82.5596 275.991 83.0039C275.729 83.4482 275.518 83.9495 275.358 84.5078C275.21 85.0661 275.096 85.63 275.017 86.1997C274.937 86.758 274.88 87.2935 274.846 87.8062C274.823 88.3188 274.812 88.7518 274.812 89.105V99H269.052V89.8057C269.052 89.4069 269.058 88.9284 269.069 88.3701C269.081 87.8005 269.064 87.208 269.018 86.5928C268.984 85.9775 268.91 85.368 268.796 84.7642C268.693 84.1489 268.522 83.6021 268.283 83.1235C268.055 82.645 267.742 82.2576 267.343 81.9614C266.944 81.6538 266.443 81.5 265.839 81.5C265.327 81.5 264.894 81.6424 264.541 81.9272C264.199 82.2121 263.908 82.5824 263.669 83.0381C263.441 83.4824 263.259 83.9894 263.122 84.5591C262.997 85.1174 262.9 85.6813 262.832 86.251C262.775 86.8092 262.74 87.3447 262.729 87.8574C262.718 88.3587 262.712 88.7746 262.712 89.105V99H256.918V79.2612H259.14L261.259 83.8584C261.738 82.2633 262.49 81.0215 263.515 80.1328C264.552 79.2327 265.925 78.7827 267.634 78.7827C269.172 78.7827 270.448 79.1017 271.462 79.7397C272.476 80.3778 273.273 81.4146 273.854 82.8501C274.185 82.2235 274.549 81.6595 274.948 81.1582C275.358 80.6569 275.808 80.2297 276.298 79.8765C276.8 79.5233 277.352 79.2555 277.956 79.0732C278.56 78.8796 279.226 78.7827 279.956 78.7827C281.3 78.7827 282.445 79.0049 283.391 79.4492C284.348 79.8822 285.128 80.486 285.732 81.2607C286.336 82.0355 286.774 82.9583 287.048 84.0293C287.321 85.0889 287.458 86.2396 287.458 87.4814Z" fill="white"/>
</svg>
